{"title":"Toy.Soldiers.1991.BRRip.XviD.MP3-RARBG","uid":12657056,"size":1518156348,"categoryP":"video","categoryS":"movies","magnet":"?xt=urn:btih:2fe694c388309ca0fc40b74b2d1d13be277bc15c&amp;dn=Toy.Soldiers.1991.BRRip.XviD.MP3-RARBG&amp;tr=udp%3A%2F%2Ftracker.leechers-paradise.org%3A6969&amp;tr=udp%3A%2F%2Fzer0day.ch%3A1337&amp;tr=udp%3A%2F%2Fopen.demonii.com%3A1337&amp;tr=udp%3A%2F%2Ftracker.coppersurfer.tk%3A6969&amp;tr=udp%3A%2F%2Fexodus.desync.com%3A6969","seeders":0,"leechers":1,"uploader":null,"files":4,"time":1446238739,"description":"Video\r\nID                                       : 0\r\nFormat                                   : MPEG-4 Visual\r\nFormat profile                           :   \r\nFormat settings, BVOP                    : No\r\nFormat settings, QPel                    : No\r\nFormat settings, GMC                     : No warppoints\r\nFormat settings, Matrix                  : Default (H.263)\r\nCodec ID                                 : XVID\r\nCodec ID/Hint                            : XviD\r\nDuration                                 : 1h 52mn\r\nBit rate                                 : 1 598 Kbps\r\nWidth                                    : 720 pixels\r\nHeight                                   : 390 pixels\r\nDisplay aspect ratio                     : 1.85:1\r\nFrame rate                               : 23.976 fps\r\nColor space                              : YUV\r\nChroma subsampling                       : 4:2:0\r\nBit depth                                : 8 bits\r\nScan type                                : Progressive\r\nCompression mode                         : Lossy\r\nBits/(Pixel*Frame)                       : 0.237\r\nStream size                              : 1.25 GiB (89%)\r\nTitle                                    : RARBG.COM - Toy.Soldiers.1991.BRRip.XviD.MP3-RARBG\r\nWriting library                          : Lavc56.60.100\r\n\r\nAudio\r\nID                                       : 1\r\nFormat                                   : MPEG Audio\r\nFormat version                           : Version 1\r\nFormat profile                           : Layer 3\r\nMode                                     : Joint stereo\r\nCodec ID                                 : 55\r\nCodec ID/Hint                            : MP3\r\nDuration                                 : 1h 52mn\r\nBit rate mode                            : Constant\r\nBit rate                                 : 192 Kbps\r\nChannel(s)                               : 2 channels\r\nSampling rate                            : 48.0 KHz\r\nCompression mode                         : Lossy\r\nStream size                              : 154 MiB (11%)\r\nAlignment                                : Aligned on interleaves\r\nInterleave, duration                     : 24 ms (0.58 video frame)\r\nInterleave, preload duration             : 24 ms\r\nTitle                                    : RARBG.COM - Toy.Soldiers.1991.BRRip.XviD.MP3-RARBG","torrent":{"xt":"urn:btih:2fe694c388309ca0fc40b74b2d1d13be277bc15c","amp;dn":"Toy.Soldiers.1991.BRRip.XviD.MP3-RARBG","amp;tr":["udp%3A%2F%2Ftracker.leechers-paradise.org%3A6969","udp%3A%2F%2Fzer0day.ch%3A1337","udp%3A%2F%2Fopen.demonii.com%3A1337","udp%3A%2F%2Ftracker.coppersurfer.tk%3A6969","udp%3A%2F%2Fexodus.desync.com%3A6969"],"infoHash":"2fe694c388309ca0fc40b74b2d1d13be277bc15c","infoHashBuffer":{"type":"Buffer","data":[47,230,148,195,136,48,156,160,252,64,183,75,45,29,19,190,39,123,193,92]},"announce":[],"urlList":[]}}